<svg width="16" height="16" viewBox="0 0 16 16" fill="none" xmlns="http://www.w3.org/2000/svg">
<path d="M1.36841 7C0.816123 7 0.368408 7.44772 0.368408 8C0.368408 8.55228 0.816123 9 1.36841 9V7ZM15.3591 8.70711C15.7496 8.31658 15.7496 7.68342 15.3591 7.29289L8.99516 0.928932C8.60464 0.538408 7.97147 0.538408 7.58095 0.928932C7.19042 1.31946 7.19042 1.95262 7.58095 2.34315L13.2378 8L7.58095 13.6569C7.19042 14.0474 7.19042 14.6805 7.58095 15.0711C7.97147 15.4616 8.60464 15.4616 8.99516 15.0711L15.3591 8.70711ZM1.36841 9H14.652V7H1.36841V9Z" fill="black"/>
</svg>
